<svg width="20" height="16" viewBox="0 0 20 16" fill="none" xmlns="http://www.w3.org/2000/svg">
<path d="M18.2 5.00999C19.6 6.69999 19.6 9.3 18.2 10.99C16.2 13.4 13.27 14.94 10 14.94C6.73001 14.94 3.81 13.41 1.8 10.99C0.4 9.3 0.4 6.69999 1.8 5.00999C3.8 2.59999 6.73001 1.06 10 1.06C13.27 1.06 16.19 2.58999 18.2 5.00999Z" stroke="#6B686A" stroke-width="1.5" stroke-linecap="round" stroke-linejoin="round"/>
<path d="M18.2 5.00999C19.6 6.69999 19.6 9.3 18.2 10.99C16.2 13.4 13.27 14.94 10 14.94C6.73001 14.94 3.81 13.41 1.8 10.99C0.4 9.3 0.4 6.69999 1.8 5.00999C3.8 2.59999 6.73001 1.06 10 1.06C13.27 1.06 16.19 2.58999 18.2 5.00999Z" stroke="#6B686A" stroke-width="1.5" stroke-linecap="round" stroke-linejoin="round"/>
<path d="M9.99991 11.08C11.7009 11.08 13.0799 9.70102 13.0799 7.99998C13.0799 6.29895 11.7009 4.91998 9.99991 4.91998C8.29887 4.91998 6.91992 6.29895 6.91992 7.99998C6.91992 9.70102 8.29887 11.08 9.99991 11.08Z" stroke="#6B686A" stroke-width="1.5" stroke-linecap="round" stroke-linejoin="round"/>
</svg>
