<svg width="32" height="32" viewBox="0 0 32 32" fill="none" xmlns="http://www.w3.org/2000/svg">
<path d="M27.9149 10C27.9709 10.308 28 10.6245 28 10.9474V17.6843C28 20.7848 25.3137 23.2983 22 23.2983H20.0971L16.8485 26.3378C16.6289 26.5434 16.3452 26.6526 16.0576 26.6654C16.0384 26.6663 16.0192 26.6667 16 26.6667C15.9808 26.6667 15.9615 26.6663 15.9424 26.6654C15.9205 26.6644 15.8985 26.6629 15.8766 26.6608C15.6411 26.6381 15.4114 26.5505 15.2208 26.3979C15.1969 26.3788 15.1738 26.3588 15.1514 26.3379L11.9029 23.2983H10C6.68629 23.2983 4 20.7848 4 17.6843V10.9474C4 7.84686 6.68629 5.33337 10 5.33337H22C22.3921 5.33337 22.7753 5.36856 23.1464 5.43573" stroke="#E31D93" stroke-width="2.5" stroke-linecap="round"/>
<circle cx="16.1785" cy="18.9932" r="1.02448" fill="#19D3C5"/>
<path d="M16.25 10.25L16.25 15.5" stroke="#19D3C5" stroke-width="2.5" stroke-linecap="round"/>
</svg>
