<svg width="24" height="24" viewBox="0 0 24 24" fill="none" xmlns="http://www.w3.org/2000/svg">
<path d="M19.5 0H4.5C2.01562 0 0 2.01563 0 4.5V19.5C0 21.9844 2.01562 24 4.5 24H12.8125V14.7031H9.6875V11.0781H12.8125V8.40625C12.8125 5.3125 14.7188 3.625 17.4844 3.625C18.7969 3.625 19.9375 3.71875 20.2656 3.76562V7L18.3594 7.01563C16.8438 7.01563 16.5625 7.71875 16.5625 8.76562V11.0781H20.1406L19.6719 14.7031H16.5625V24H19.5C21.9844 24 24 21.9844 24 19.5V4.5C24 2.01563 21.9844 0 19.5 0Z" fill="#395185"/>
</svg>
