<svg width="24" height="24" viewBox="0 0 24 24" fill="none" xmlns="http://www.w3.org/2000/svg">
<path d="M1.5002 1.63299C-0.385801 3.59199 0.000199258 5.67299 0.000199258 11.995C0.000199258 17.245 -0.915801 22.508 3.8782 23.747C5.3752 24.132 18.6392 24.132 20.1342 23.745C22.1302 23.23 23.7542 21.611 23.9762 18.788C24.0072 18.394 24.0072 5.60299 23.9752 5.20099C23.7392 2.19399 21.8882 0.460985 19.4492 0.109985C18.8902 0.0289854 18.7782 0.00498536 15.9102 -1.46404e-05C5.7372 0.00498536 3.5072 -0.448015 1.5002 1.63299Z" fill="url(#paint0_linear_2507_22817)"/>
<path d="M11.9983 3.13898C8.3673 3.13898 4.9193 2.81598 3.6023 6.19598C3.0583 7.59198 3.1373 9.40499 3.1373 12.001C3.1373 14.279 3.0643 16.42 3.6023 17.805C4.9163 21.187 8.3923 20.863 11.9963 20.863C15.4733 20.863 19.0583 21.225 20.3913 17.805C20.9363 16.395 20.8563 14.609 20.8563 12.001C20.8563 8.53899 21.0473 6.30398 19.3683 4.62598C17.6683 2.92598 15.3693 3.13898 11.9943 3.13898H11.9983ZM11.2043 4.73598C18.7783 4.72398 19.7423 3.88199 19.2103 15.579C19.0213 19.716 15.8713 19.262 11.9993 19.262C4.9393 19.262 4.7363 19.06 4.7363 11.997C4.7363 4.85198 5.2963 4.73998 11.2043 4.73398V4.73598ZM16.7283 6.20698C16.4464 6.20698 16.176 6.31898 15.9766 6.51833C15.7773 6.71768 15.6653 6.98806 15.6653 7.26998C15.6653 7.55191 15.7773 7.82229 15.9766 8.02164C16.176 8.22099 16.4464 8.33298 16.7283 8.33298C17.0102 8.33298 17.2806 8.22099 17.48 8.02164C17.6793 7.82229 17.7913 7.55191 17.7913 7.26998C17.7913 6.98806 17.6793 6.71768 17.48 6.51833C17.2806 6.31898 17.0102 6.20698 16.7283 6.20698ZM11.9983 7.44998C11.4007 7.45005 10.809 7.56782 10.2569 7.79656C9.70487 8.02531 9.20327 8.36055 8.78076 8.78315C7.92747 9.63663 7.44817 10.7941 7.4483 12.001C7.44844 13.2079 7.92799 14.3652 8.78147 15.2185C9.63495 16.0718 10.7924 16.5511 11.9993 16.551C13.2062 16.5509 14.3636 16.0713 15.2168 15.2178C16.0701 14.3643 16.5494 13.2069 16.5493 12C16.5492 10.7931 16.0696 9.63573 15.2161 8.78244C14.3627 7.92915 13.2052 7.44985 11.9983 7.44998ZM11.9983 9.04698C15.9033 9.04698 15.9083 14.955 11.9983 14.955C8.0943 14.955 8.0883 9.04698 11.9983 9.04698Z" fill="white"/>
<defs>
<linearGradient id="paint0_linear_2507_22817" x1="1.54622" y1="22.4671" x2="23.8517" y2="3.16196" gradientUnits="userSpaceOnUse">
<stop stop-color="#FFDD55"/>
<stop offset="0.5" stop-color="#FF543E"/>
<stop offset="1" stop-color="#C837AB"/>
</linearGradient>
</defs>
</svg>
