<svg width="49" height="56" viewBox="0 0 49 56" fill="none" xmlns="http://www.w3.org/2000/svg">
<path d="M48.4493 35.5275C48.4345 33.9236 48.4092 32.3177 48.3818 30.7138C48.367 29.8233 48.367 28.9925 48.2171 28.2237C48.0439 27.346 47.6723 26.5494 46.8509 25.8382C46.3928 25.441 45.8691 25.1271 45.3096 24.8985C44.0575 24.3881 42.6702 24.3048 41.3358 24.3048C40.7847 24.3048 40.2526 24.3732 39.7374 24.4906V8.35823L39.7247 8.33047C39.7437 8.16389 39.7585 7.99518 39.7585 7.82433C39.7585 5.51146 37.9047 3.63639 35.6179 3.63639C34.4165 3.63639 33.3375 4.15748 32.5816 4.98397C30.6644 4.98183 28.0821 4.97969 24.5032 4.97969C22.5838 5.08007 22.719 4.25786 21.9694 2.28455C21.6231 0.971152 19.1907 -1.28405 16.3022 0.930575C15.0818 1.79123 12.8669 4.08914 11.8534 4.68925C11.5134 4.89 11.1249 5.00959 10.7301 5.02881C9.99527 5.06512 9.29849 4.93698 8.58059 4.79176C5.01432 4.06992 0.5 6.63479 0.5 10.7523V24.8473C0.5 27.7389 2.13216 30.1991 4.65326 31.173V46.7651V51.929C4.65326 53.0416 5.89691 54.2824 6.93364 54.481C8.61015 54.8014 10.2212 54.2013 11.7478 53.5563C13.7558 52.7085 15.7321 51.7838 17.7 50.8484C19.1084 50.1778 20.5146 49.4986 21.9124 48.8024C22.189 52.5996 25.314 55.5958 29.1399 55.5958C32.9659 55.5958 36.1859 52.5056 36.3759 48.623C37.7357 49.9172 39.5833 50.6903 41.6145 50.6156C44.4713 50.5088 46.9797 48.6145 48.0629 45.9493C48.1685 45.6887 48.2656 45.2445 48.2952 44.9647C48.6119 41.8489 48.4852 38.6561 48.4557 35.5275H48.4493Z" fill="white"/>
<path d="M25.1873 17.4884C25.1873 16.6192 24.5159 15.9102 23.6692 15.8568V15.8525H17.85C17.7866 16.1707 17.7254 16.4932 17.662 16.8242C17.5079 17.6422 17.3791 18.3961 17.2545 19.1243H23.7219V19.1158C24.5433 19.0389 25.1894 18.3405 25.1894 17.4884H25.1873Z" fill="#E31D93"/>
<path d="M42.0938 30.7634L42.0979 30.7676L42.0938 30.7634Z" fill="#0071CE"/>
<path d="M39.7396 37.2621C39.5094 37.2984 39.425 37.3113 39.539 40.6086L39.5474 40.8649L39.9866 40.7923V37.2258L39.7396 37.2621Z" fill="#0071CE"/>
<path d="M36.9186 17.1533C36.9841 20.2799 35.0964 21.7299 33.3376 22.3194C33.3249 23.5666 33.3249 23.6434 33.3249 23.6498V24.9312C33.3249 25.1448 33.2658 25.3498 33.1433 25.5612C33.0631 25.7 32.9533 25.8324 32.8245 25.9456C32.5648 26.1741 32.2671 26.3151 31.9398 26.3685C31.8722 26.3792 31.8026 26.3856 31.7244 26.3856C31.5576 26.3898 31.4014 26.3642 31.2557 26.313C31.1248 26.266 31.0044 26.1934 30.9094 26.1015C30.7215 25.9221 30.6265 25.6958 30.6265 25.4288C30.6265 25.0209 30.4597 24.6515 30.1598 24.3909C29.8114 24.0898 29.3131 23.9616 28.7937 24.0449C28.5108 24.0898 28.2342 24.1966 27.9702 24.3653L27.9491 24.3802C27.7633 24.502 27.6007 24.6472 27.4656 24.8116C27.4487 24.833 27.4297 24.8543 27.4128 24.8778C27.3769 24.9248 27.341 24.9718 27.3115 25.0209C27.2629 25.0978 27.2228 25.1704 27.1869 25.2452C27.1784 25.2665 27.17 25.2857 27.1615 25.3071L27.1531 25.3284C27.1257 25.3968 27.1024 25.4673 27.0834 25.5377C27.075 25.5676 27.0686 25.5954 27.0623 25.6253C27.0391 25.7385 27.0306 25.8324 27.0306 25.9243C27.0306 25.9456 27.0306 25.967 27.0349 26.0097C27.0412 26.2959 27.0729 26.5671 27.132 26.8148C27.1996 27.0946 27.2967 27.3658 27.4276 27.6178C27.7253 28.1987 28.1898 28.6963 28.7705 29.0572C28.9352 29.1576 29.0893 29.2409 29.2456 29.3114C29.6467 29.4907 30.0859 29.6103 30.5483 29.6659C30.7489 29.6894 30.9516 29.7022 31.1564 29.7022C31.4394 29.7022 31.7244 29.6787 32.0137 29.6338C32.3452 29.5826 32.6767 29.4993 32.9998 29.3882C33.3165 29.2815 33.6269 29.1448 33.9225 28.9867C34.7987 28.5169 35.5441 27.8485 36.0783 27.0561C36.6336 26.2361 36.925 25.3284 36.925 24.4358V17.1555L36.9186 17.1533Z" fill="#0071CE"/>
<path d="M36.9207 17.4414C36.8679 20.3694 35.0415 21.7468 33.3375 22.3192L33.3248 17.9006C33.3248 18.5712 32.7041 19.214 31.9397 19.3357C31.6927 19.3742 31.4689 19.3571 31.2535 19.2802C31.1205 19.2332 31.0022 19.1606 30.9072 19.0688C30.7193 18.8894 30.6243 18.663 30.6243 18.3961V11.4083C30.6243 10.9833 30.4532 10.5989 30.145 10.3256C29.805 10.0223 29.3447 9.89205 28.8464 9.95825C27.8435 10.0885 27.0284 10.9364 27.0284 11.8483V18.8958C27.0284 19.5023 27.1615 20.0725 27.4254 20.5872C27.8055 21.3325 28.4347 21.9177 29.2434 22.2786C29.8219 22.5391 30.4701 22.6694 31.1479 22.6694C31.4309 22.6694 31.718 22.6459 32.0094 22.6011C32.1889 22.5733 32.8603 22.4623 33.0123 22.4195C33.4452 22.2999 33.8675 22.1398 34.2666 21.9326C34.7395 21.687 35.1808 21.3752 35.5567 20.9951C35.9895 20.5573 36.3273 20.0341 36.5512 19.4596C36.8024 18.8189 36.9101 18.1291 36.9186 17.4414H36.9207Z" fill="#19D3C5"/>
<path d="M36.9186 17.4415C36.9186 17.3539 36.9186 17.2685 36.9186 17.1809V7.53648C36.9186 7.12218 36.7476 6.74844 36.4372 6.4879C36.0761 6.18251 35.563 6.06505 35.0309 6.16329C34.0934 6.33627 33.3312 7.19479 33.3228 8.08107L33.3354 22.3213C35.0394 21.749 36.8658 20.3715 36.9186 17.4436V17.4415Z" fill="#E31D93"/>
<path d="M24.4715 22.6267C24.4715 22.6267 20.3415 4.19428 20.3415 4.19001C20.2845 3.9316 20.181 3.68174 20.0247 3.46818C19.8558 3.23753 19.6447 3.07736 19.3871 2.9599C18.7938 2.69081 18.1688 2.65878 17.6071 3.01543C17.4994 3.08377 17.3981 3.16492 17.3136 3.26102C16.8597 3.76289 16.999 4.46978 17.1278 5.06988C17.1468 5.16172 18.665 12.8222 18.665 12.8222L20.6835 22.4943L20.9411 23.7309C21.0235 24.1067 21.2536 24.4228 21.5915 24.6193C21.8385 24.7624 22.1278 24.8371 22.4318 24.8371C22.6387 24.8371 22.852 24.8029 23.0632 24.7346C24.0239 24.4228 24.6531 23.4767 24.4694 22.6267H24.4715Z" fill="#19D3C5"/>
<path d="M14.8812 29.2163C14.8812 29.2163 14.8845 29.2098 14.8877 29.2065C14.8845 29.2065 14.8812 29.2065 14.8812 29.2163Z" fill="#3D54A2"/>
<path d="M39.539 40.6086L39.5474 40.8649L39.9866 40.7923V37.2258L39.7396 37.2621C39.5094 37.2984 39.425 37.3113 39.539 40.6086Z" fill="#E31D93"/>
<path d="M45.6031 41.2172C45.0478 40.8904 44.3109 40.9289 43.631 41.3175C43.0504 41.6507 42.6872 42.2593 42.6851 42.9043C42.6851 43.1157 42.6238 43.3207 42.5035 43.5322C42.4232 43.671 42.3134 43.8034 42.1847 43.9144C41.9249 44.1429 41.6272 44.2839 41.2999 44.3373C41.0529 44.3757 40.8291 44.3586 40.6158 44.2818C40.4828 44.2348 40.3646 44.1622 40.2696 44.0725C40.0816 43.8931 39.9866 43.6667 39.9845 43.3998V34.3576C39.9486 33.4841 39.1484 32.7815 38.1792 32.7815C37.21 32.7815 36.4541 33.4521 36.3887 34.2999V43.8974C36.3887 44.5039 36.5217 45.0741 36.7856 45.5888C37.1657 46.3341 37.7949 46.9192 38.6036 47.2802C39.1821 47.5407 39.8304 47.671 40.5081 47.671C40.7911 47.671 41.0782 47.6475 41.3696 47.6026C42.0305 47.498 42.6745 47.2802 43.2784 46.9555C44.1547 46.4857 44.9 45.8173 45.4342 45.025C45.9895 44.2049 46.2809 43.2972 46.2809 42.4046C46.2809 41.9027 46.0339 41.4692 45.6031 41.215V41.2172Z" fill="#E31D93"/>
<path d="M6.75767 17.2167C6.75767 17.2167 6.75 17.2167 6.75 17.2129C6.75 17.2129 6.75383 17.2167 6.75767 17.2206V17.2167Z" fill="#EB0F6A"/>
<g style="mix-blend-mode:multiply">
<path d="M6.53247 17.0955C6.5937 17.1403 6.66338 17.1809 6.74784 17.2129C6.67816 17.1681 6.60637 17.1296 6.53247 17.0955Z" fill="#59C4C5"/>
</g>
<path d="M19.0021 30.8544C19.0021 30.8544 18.9944 30.8505 18.9944 30.8467L19.0021 30.8544Z" fill="#EB0F6A"/>
<g style="mix-blend-mode:multiply" opacity="0.44">
<path d="M18.9944 30.8468C18.9711 30.8254 18.9521 30.8041 18.931 30.7827C18.9521 30.8041 18.9733 30.8254 18.9944 30.8468Z" fill="#433993"/>
</g>
<path d="M36.9186 17.794C36.9271 17.6466 36.9123 17.589 36.8806 17.4502C36.7835 17.0423 36.5512 16.6899 36.2324 16.4422C35.9283 16.2051 35.5483 16.062 35.1344 16.062C34.142 16.062 33.3207 16.8031 33.3207 17.8068L33.3355 22.3236C33.3355 22.3236 36.3316 21.5804 36.8384 18.4539C36.8954 18.0802 36.9017 18.0866 36.9165 17.7961L36.9186 17.794Z" fill="#433993"/>
<g style="mix-blend-mode:multiply" opacity="0.68">
<path d="M19.2942 15.8525L19.9783 19.1243H23.686L22.9534 15.8525H19.2942Z" fill="#433993"/>
</g>
<path d="M3.12061 18.7769C3.12061 18.7769 3.1249 18.7834 3.12705 18.7878C3.11846 18.7747 3.11417 18.7616 3.10559 18.7507C3.10988 18.7595 3.11417 18.7682 3.11846 18.7769H3.12061Z" fill="#E31D93"/>
<path d="M4.29004 19.9529C4.69966 20.2262 5.01216 20.3309 5.01216 20.3309C4.9636 20.3095 4.91715 20.2818 4.87069 20.2583C4.84747 20.2476 4.82424 20.2412 4.80101 20.2305C4.62154 20.1494 4.45051 20.0554 4.29004 19.955V19.9529Z" fill="#E31D93"/>
<path d="M12.0836 19.2995C11.7035 18.5542 11.0743 17.9691 10.2656 17.6081C9.44423 17.2408 8.48773 17.1298 7.49957 17.2857C7.31376 17.3156 7.13639 17.3113 6.96959 17.275C6.80489 17.2387 6.65498 17.1682 6.5304 17.07C6.53463 17.0742 6.53885 17.0785 6.54518 17.0828C6.29814 16.9696 6.00465 16.9226 5.71327 16.9226C4.73566 16.9226 3.94174 17.5676 3.94174 18.6994C3.94174 19.3743 4.3197 19.9573 4.87079 20.2563C5.67526 20.6001 6.60642 20.7026 7.56713 20.551C7.75294 20.5211 7.93031 20.5254 8.09711 20.5617C8.32726 20.6129 8.52996 20.7304 8.66932 20.8906C8.81079 21.0572 8.88258 21.2579 8.88258 21.4885V22.819C8.88258 23.1436 8.739 23.4939 8.48985 23.7779C8.36738 23.9167 8.22591 24.0342 8.06755 24.1282C7.90708 24.2221 7.7445 24.2862 7.56713 24.3204C7.54391 24.3246 7.52068 24.3289 7.49746 24.3332C7.38555 24.3503 7.27153 24.3524 7.13639 24.3417H7.1195L7.10261 24.3396C7.05616 24.3353 7.00971 24.3332 6.96748 24.3225C6.73733 24.2712 6.53463 24.1538 6.39527 23.9936C6.2538 23.827 6.18201 23.6263 6.18201 23.3956C6.18201 22.9877 6.01521 22.6183 5.71538 22.3577C5.36699 22.0566 4.86868 21.9285 4.34926 22.0118C3.37798 22.1655 2.58618 23.0091 2.58618 23.8932C2.58618 24.4998 2.7192 25.07 2.98314 25.5846C3.3632 26.33 3.99242 26.9151 4.80111 27.2761C5.37332 27.5323 6.02787 27.6647 6.70988 27.6647C6.77111 27.6647 6.83234 27.6605 6.89569 27.6583V27.6669L7.13639 27.6476L7.34332 27.6306V27.6263C7.42144 27.6177 7.49746 27.6071 7.56925 27.5964C7.64737 27.5836 7.72549 27.5708 7.80573 27.5537C8.45817 27.4234 9.08317 27.1821 9.67016 26.834C10.5021 26.3407 11.2073 25.6615 11.7056 24.8671C12.2103 24.0662 12.4763 23.1906 12.4805 22.3342V20.9867C12.4805 20.3802 12.3475 19.81 12.0836 19.2953V19.2995Z" fill="#19D3C5"/>
<path d="M7.65998 10.6587C6.71826 10.6096 5.96658 9.89846 5.96658 9.02927C5.96658 8.27753 6.52612 7.64539 7.28625 7.45532C7.2778 7.45532 7.27147 7.45746 7.26302 7.45959C6.61269 7.58987 5.98347 7.83119 5.3986 8.17716C4.56668 8.67049 3.86145 9.34961 3.36314 10.1441C2.85639 10.9513 2.58823 11.8333 2.58823 12.694C2.58823 12.694 2.58823 15.1777 2.58823 16.3032C2.54389 17.3667 2.70225 17.8856 2.87328 18.2893C3.12666 18.8894 3.35892 19.1094 3.50039 19.2674C3.63552 19.419 3.78332 19.5578 3.93957 19.6881C4.05148 19.7821 4.16972 19.8696 4.29219 19.9508C4.45477 20.0533 4.62369 20.1473 4.80316 20.2263C4.82639 20.237 4.84962 20.2434 4.87284 20.254C4.31964 19.9529 3.9438 19.3699 3.9438 18.6972C3.9438 17.5674 4.7356 16.9204 5.71532 16.9204C6.00881 16.9204 6.30019 16.9673 6.54724 17.0805C6.54301 17.0763 6.53879 17.072 6.53246 17.0677C6.50289 17.0442 6.47756 17.0207 6.45222 16.9951C6.44166 16.9844 6.42899 16.9737 6.41844 16.9631C6.26008 16.7837 6.2094 16.5722 6.19251 16.4505C6.18829 16.4163 6.18406 16.3822 6.18406 16.3459V16.2348C6.19251 16.1814 6.1904 16.1195 6.18406 16.0576V12.1964C6.18406 11.8718 6.32764 11.5215 6.5768 11.2375C6.69926 11.0987 6.84073 10.9791 6.99909 10.8872C7.15956 10.7933 7.32426 10.7292 7.50162 10.6929C7.52485 10.6886 7.54596 10.6844 7.56919 10.6801L7.61775 10.6694C7.65153 10.6673 7.68532 10.663 7.7191 10.6587C7.7001 10.6587 7.67898 10.6587 7.65998 10.6545V10.6587Z" fill="#E31D93"/>
<path d="M12.0836 9.43286C11.7035 8.68753 11.0743 8.10237 10.2656 7.74145C9.52024 7.4083 8.65454 7.28657 7.75716 7.38481C7.73394 7.38694 7.7086 7.38908 7.68537 7.39121C7.67059 7.39121 7.65793 7.39762 7.64314 7.39976C7.60936 7.39976 7.57558 7.40616 7.54179 7.41043C7.45522 7.42111 7.37077 7.43393 7.28842 7.45528C6.52829 7.64535 5.96875 8.27749 5.96875 9.02923C5.96875 9.89842 6.72043 10.6096 7.66215 10.6587C7.68115 10.663 7.70015 10.663 7.72127 10.663C7.73394 10.663 7.74661 10.6672 7.75928 10.6651C7.87752 10.6587 7.99365 10.6715 8.10133 10.695C8.33148 10.7463 8.53418 10.8637 8.67354 11.0239C8.81501 11.1905 8.8868 11.3912 8.8868 11.6219C8.8868 12.0298 9.05361 12.3992 9.35343 12.6598C9.63215 12.9011 10.008 13.0314 10.4113 13.0314C10.5126 13.0314 10.6161 13.0228 10.7196 13.0079C11.6929 12.8541 12.4826 12.0105 12.4826 11.1264C12.4826 10.5199 12.3496 9.94968 12.0857 9.43499L12.0836 9.43286Z" fill="#0071CE"/>
<path d="M32.4465 17.6573C32.3789 17.668 32.3113 17.6808 32.2438 17.6936C32.3219 17.6744 32.4042 17.6594 32.4866 17.6509L32.4465 17.6573Z" fill="#0071CE"/>
<path d="M14.3723 29.4117C14.404 29.3754 14.4356 29.3391 14.4673 29.3028C14.5307 29.2344 14.594 29.1682 14.6595 29.102C14.6595 29.102 14.6595 29.102 14.6616 29.0999C14.7207 29.0401 14.7819 28.9846 14.8432 28.9269C14.8495 28.9205 14.8579 28.9141 14.8643 28.9077C14.7376 28.8329 14.6067 28.7667 14.4758 28.7069C13.6544 28.3396 12.6979 28.2286 11.7097 28.3845C11.0488 28.4891 10.4048 28.7069 9.80097 29.0316C8.92471 29.5014 8.17936 30.1698 7.64516 30.9622C7.08984 31.7822 6.79846 32.6899 6.79846 33.5825V50.4966C6.79846 50.9045 6.96527 51.274 7.2651 51.5345C7.54381 51.7758 7.91965 51.9061 8.32294 51.9061C8.42429 51.9061 8.52775 51.8976 8.63122 51.8826C9.60249 51.7288 10.3943 50.8853 10.3943 50.0011V33.0871C10.3943 32.9248 10.4281 32.771 10.4978 32.6108C10.5991 32.3781 10.7786 32.1581 11.0003 31.9872C11.2347 31.81 11.4965 31.6968 11.7794 31.652C11.9652 31.6221 12.1426 31.6263 12.3094 31.6626C12.5395 31.7139 12.7444 31.8313 12.8816 31.9915C12.9998 32.1303 13.0653 32.2948 13.0864 32.4763C13.1519 31.4064 13.553 30.3749 14.3153 29.4779C14.3343 29.4565 14.3533 29.4352 14.3723 29.4117Z" fill="#0071CE"/>
<path d="M10.6587 49.7894C10.6587 49.7894 10.6485 49.7842 10.6434 49.7791C10.6485 49.7816 10.6536 49.7842 10.6587 49.7894Z" fill="#E31D93"/>
<path d="M15.0923 28.7134C15.0163 28.7753 14.9403 28.8394 14.8685 28.9056C14.9424 28.8394 15.0163 28.7753 15.0923 28.7134Z" fill="#E31D93"/>
<path d="M14.6616 29.0997C14.7207 29.0421 14.782 28.9844 14.8432 28.9268C14.782 28.9823 14.7207 29.0399 14.6616 29.0997Z" fill="#E31D93"/>
<path d="M14.3153 29.4778C14.3343 29.4565 14.3533 29.4351 14.3723 29.4116C14.3533 29.433 14.3343 29.4543 14.3153 29.4778Z" fill="#E31D93"/>
<path d="M14.4674 29.3028C14.5286 29.2345 14.5941 29.1683 14.6595 29.1021C14.5941 29.1661 14.5308 29.2345 14.4674 29.3028Z" fill="#E31D93"/>
<path d="M20.2401 31.3485C20.8735 31.3485 21.4309 31.0196 21.7561 30.522C21.9461 30.2316 22.058 29.8835 22.058 29.5097C22.058 29.3602 22.039 29.215 22.0053 29.0762C21.906 28.664 21.6716 28.3074 21.3507 28.0554C21.3401 28.049 21.3148 28.0234 21.3106 28.0212C20.8418 27.7201 19.7755 27.1926 18.2658 27.3656L18.1941 27.3763C17.0686 27.5279 15.9791 27.9913 15.0944 28.711C15.0184 28.773 14.9424 28.837 14.8706 28.9032C15.5885 29.2663 16.6358 30.2102 16.6822 32.0426C16.6822 32.0148 16.6928 31.9208 16.7371 31.7863C16.754 31.7286 16.773 31.6688 16.7984 31.6112C16.8997 31.3784 17.0792 31.1563 17.3009 30.9876C17.5353 30.8103 17.7971 30.6971 18.08 30.6523C18.2658 30.6224 18.4432 30.6267 18.61 30.663C18.8402 30.7142 19.045 30.8317 19.1822 30.9919C19.1864 30.9983 19.1907 31.0047 19.1949 31.0089C19.4124 31.1627 19.6552 31.2545 19.9402 31.3165C20.0395 31.3335 20.1408 31.3442 20.2464 31.3442L20.2401 31.3485Z" fill="#E31D93"/>
<g style="mix-blend-mode:multiply" opacity="0.68">
<path d="M13.7516 48.0427C13.7242 48.0256 13.6967 48.0085 13.6714 47.9915C13.6967 48.0107 13.7242 48.0256 13.7516 48.0427Z" fill="#433993"/>
</g>
<g style="mix-blend-mode:multiply" opacity="0.68">
<path d="M13.0927 32.5788C13.0927 32.5447 13.0885 32.5105 13.0843 32.4763C13.0843 32.4977 13.0801 32.5212 13.0801 32.5425V37.5719L13.0927 32.66V32.5788Z" fill="#433993"/>
</g>
<g style="mix-blend-mode:multiply" opacity="0.68">
<path d="M14.8681 28.9094L14.8719 28.9055L14.8643 28.9094H14.8681Z" fill="#433993"/>
</g>
<path d="M14.3723 29.4116C14.404 29.3753 14.4357 29.339 14.4673 29.3027C14.4335 29.339 14.404 29.3753 14.3723 29.4116Z" fill="#0071CE"/>
<g style="mix-blend-mode:multiply" opacity="0.68">
<path d="M14.3723 29.4116C14.404 29.3753 14.4357 29.339 14.4673 29.3027C14.4335 29.339 14.404 29.3753 14.3723 29.4116Z" fill="#433993"/>
</g>
<path d="M14.8679 28.9078C14.8611 28.9145 14.8521 28.9213 14.8453 28.928C14.8544 28.9213 14.8612 28.9123 14.8702 28.9055L14.8679 28.9078Z" fill="#0071CE"/>
<g style="mix-blend-mode:multiply" opacity="0.68">
<path d="M14.8679 28.9078C14.8611 28.9145 14.8521 28.9213 14.8453 28.928C14.8544 28.9213 14.8612 28.9123 14.8702 28.9055L14.8679 28.9078Z" fill="#433993"/>
</g>
<path d="M14.6595 29.1062C14.6595 29.1062 14.6595 29.1062 14.6637 29.1021C14.6637 29.1021 14.6637 29.102 14.6595 29.1062Z" fill="#0071CE"/>
<g style="mix-blend-mode:multiply" opacity="0.68">
<path d="M14.6595 29.1062C14.6595 29.1062 14.6595 29.1062 14.6637 29.1021C14.6637 29.1021 14.6637 29.102 14.6595 29.1062Z" fill="#433993"/>
</g>
<path d="M13.0949 32.3758C13.2026 31.2461 13.6523 30.2658 14.3132 29.4778C13.551 30.3769 13.1498 31.4084 13.0844 32.4762C13.0886 32.5104 13.0928 32.5424 13.0928 32.5787V32.3758H13.0949Z" fill="#0071CE"/>
<g style="mix-blend-mode:multiply" opacity="0.68">
<path d="M13.0949 32.3758C13.2026 31.2461 13.6523 30.2658 14.3132 29.4778C13.551 30.3769 13.1498 31.4084 13.0844 32.4762C13.0886 32.5104 13.0928 32.5424 13.0928 32.5787V32.3758H13.0949Z" fill="#433993"/>
</g>
<path d="M14.8706 28.9055L14.8665 28.9097L14.8706 28.9055Z" fill="#E31D93"/>
<g style="mix-blend-mode:multiply" opacity="0.68">
<path d="M14.8706 28.9055L14.8665 28.9097L14.8706 28.9055Z" fill="#433993"/>
</g>
<path d="M14.8917 48.2326C15.8081 48.0874 16.5893 47.2759 16.6717 46.4195C16.5471 47.214 15.8144 47.9273 14.9297 48.0682C14.4103 48.1494 13.9141 48.0234 13.5636 47.7222C13.2617 47.4617 13.097 47.0922 13.097 46.6843V32.5893C13.097 32.5893 13.097 32.5829 13.097 32.5786V32.6598L13.0864 37.5717L13.0906 46.8659C13.0906 47.2738 13.2575 47.6432 13.5573 47.9038C13.5932 47.9358 13.6333 47.9636 13.6713 47.9913C13.6988 48.0084 13.7241 48.0276 13.7515 48.0426C13.7558 48.0447 13.76 48.0468 13.7621 48.049C14.0028 48.1857 14.2857 48.2561 14.5835 48.2561C14.6848 48.2561 14.7862 48.2476 14.8896 48.2326H14.8917Z" fill="#E31D93"/>
<path d="M14.8432 28.9291C14.782 28.9867 14.7208 29.0444 14.6616 29.1021C14.6616 29.1021 14.6616 29.1021 14.6595 29.1042C14.5941 29.1704 14.5286 29.2366 14.4674 29.3049C14.4357 29.3412 14.404 29.3775 14.3724 29.4139C14.3534 29.4352 14.3344 29.4566 14.3154 29.4801C13.6524 30.2681 13.2047 31.2505 13.097 32.3781V32.581C13.097 32.581 13.097 32.5874 13.097 32.5916V46.6867C13.097 47.0946 13.2639 47.464 13.5637 47.7246C13.9121 48.0278 14.4104 48.1538 14.9298 48.0706C15.8166 47.9296 16.5493 47.2163 16.6718 46.4219C16.676 46.3727 16.6802 46.3258 16.6802 46.2766V32.1816C16.6802 32.1816 16.6802 32.1752 16.6802 32.1709V32.0599C16.6802 32.0599 16.6802 32.0535 16.6802 32.0471C16.6359 30.2126 15.5865 29.2708 14.8686 28.9077C14.8601 28.9141 14.8538 28.9205 14.8453 28.9291H14.8432Z" fill="#E31D93"/>
<g style="mix-blend-mode:multiply" opacity="0.68">
<path d="M16.6801 32.0471C16.6358 30.2126 15.5864 29.2708 14.8685 28.9077C14.8601 28.9141 14.8537 28.9205 14.8453 28.9291C14.784 28.9867 14.7228 29.0444 14.6637 29.1021C14.6637 29.1021 14.6637 29.1021 14.6616 29.1042C14.5961 29.1704 14.5307 29.2366 14.4694 29.3049C14.4378 29.3412 14.4061 29.3775 14.3744 29.4139C14.3554 29.4352 14.3364 29.4566 14.3174 29.4801C13.6544 30.2681 13.2068 31.2505 13.0991 32.3781V32.581L13.097 32.6621L13.0864 37.574L13.0906 46.8682C13.0906 47.2761 13.2575 47.6456 13.5573 47.9061C13.5932 47.9381 13.6333 47.9659 13.6713 47.9937C13.6988 48.0108 13.7241 48.03 13.7515 48.0449C13.7558 48.0471 13.76 48.0492 13.7621 48.0513C14.0028 48.188 14.2857 48.2585 14.5835 48.2585C14.6848 48.2585 14.7862 48.2499 14.8896 48.235C15.806 48.0898 16.5872 47.2782 16.6696 46.4219C16.6738 46.3727 16.678 46.3258 16.678 46.2766V32.1816C16.678 32.1816 16.678 32.1752 16.678 32.1709V32.0599C16.678 32.0599 16.678 32.0535 16.678 32.0471H16.6801Z" fill="#433993"/>
</g>
<path d="M19.6109 3.22269C19.2055 2.84896 18.6439 2.62258 17.983 2.84255C17.3094 3.06892 16.9969 3.4576 16.7266 4.77528L13.2892 21.4501C13.1984 21.8986 13.2934 22.33 13.5552 22.6674C13.8213 23.0113 14.2267 23.2099 14.6975 23.227C14.7207 23.227 14.7461 23.227 14.7693 23.227C14.9488 23.227 15.1261 23.2013 15.2993 23.1543C16.0024 22.9621 16.6696 22.3706 16.8111 21.6253C16.9737 20.7667 19.064 10.0075 19.3449 8.5126C19.3449 8.5126 20.0691 4.74965 20.0923 4.52114C20.1493 3.91249 19.8263 3.41703 19.6109 3.21842V3.22269Z" fill="#0071CE"/>
<path opacity="0.53" d="M20.0817 4.52541C20.1388 3.91676 19.8157 3.4213 19.6003 3.22269C19.1949 2.84896 18.6333 2.62258 17.9724 2.84255C17.9027 2.86604 17.8394 2.89167 17.7781 2.91729C17.719 2.94719 17.6599 2.97709 17.6008 3.0134C17.4931 3.08174 17.3917 3.16289 17.3073 3.25899C16.8533 3.76086 16.9927 4.46775 17.1215 5.06786C17.1384 5.14901 18.3271 11.1202 18.591 12.4443C18.8444 11.2462 19.0809 9.87298 19.3364 8.5126C19.3364 8.5126 20.0606 4.74965 20.0839 4.52114L20.0817 4.52541Z" fill="#005080"/>
<path d="M30.4617 35.7735H30.4575V35.7693V35.7735H30.4617Z" fill="#19D3C5"/>
<path d="M30.4152 35.7501C30.4152 35.7501 30.3983 35.7458 30.3899 35.7437L30.4553 35.7693C30.4406 35.7629 30.4279 35.7565 30.4152 35.7501Z" fill="#0071CE"/>
<path d="M31.5406 32.4676C31.5174 32.4633 31.4963 32.4569 31.4752 32.4526C31.4752 32.4526 31.4731 32.4526 31.4709 32.4526C31.4942 32.459 31.5174 32.4654 31.5427 32.4697L31.5406 32.4676Z" fill="#0071CE"/>
<path d="M32.9364 34.1656C32.9364 35.0391 32.3156 35.9467 31.0952 35.9467C30.9495 35.9467 30.5061 35.7908 30.5061 35.7908L30.4596 35.7716C30.5842 35.8207 30.6855 35.8848 30.7658 35.9616C30.9537 36.141 31.0487 36.3674 31.0487 36.6322V41.8068C31.0487 41.8175 31.0297 41.8431 30.9896 41.8474L28.3481 42.2617V45.7961L30.6644 45.4139L31.2599 45.3199C31.7033 45.2601 32.3705 45.1725 32.9786 45.0465C33.0124 45.0401 33.0462 45.0294 33.0968 45.0166C33.4452 44.9184 33.8464 44.7305 34.085 44.4486C34.1272 44.3973 34.1674 44.3439 34.2054 44.2905C34.4461 43.9595 34.6445 43.6114 34.6445 43.1843V36.1368C34.6445 35.5303 34.5115 34.96 34.2476 34.4454C33.8675 33.7 33.2383 33.1149 32.4296 32.754C32.1826 32.6429 31.9207 32.5575 31.6463 32.4934C32.4191 32.7006 32.9364 33.4181 32.9364 34.1677V34.1656Z" fill="#0071CE"/>
<path d="M33.9667 46.2232C33.4114 45.8965 32.6745 45.9349 31.9946 46.3236C31.414 46.6567 31.0508 47.2654 31.0487 47.9103C31.0487 48.1218 30.9874 48.3268 30.8671 48.5382C30.7869 48.677 30.6771 48.8094 30.5483 48.9205C30.2886 49.149 29.9908 49.2899 29.6636 49.3433C29.4165 49.3818 29.1927 49.3647 28.9794 49.2878C28.8464 49.2408 28.7282 49.1682 28.6332 49.0785C28.4452 48.8991 28.3502 48.6728 28.3481 48.4058V37.1298C28.3481 36.9162 28.4072 36.7112 28.5297 36.4998C28.6099 36.361 28.7197 36.2285 28.8485 36.1175C28.9076 36.0662 28.9689 36.0193 29.0343 35.9744C29.0935 35.9338 29.1589 35.8954 29.2328 35.8591L29.2455 35.8527C29.4017 35.7758 29.5664 35.7224 29.7332 35.6946C29.9697 35.6583 30.1872 35.6733 30.392 35.7416C30.4152 35.7502 30.4364 35.7587 30.4596 35.7694L30.506 35.7886C30.506 35.7886 30.9516 35.9445 31.0951 35.9445C32.3177 35.9445 32.9363 35.0369 32.9363 34.1634C32.9363 33.4138 32.419 32.6963 31.6462 32.4891C31.5449 32.4613 31.4372 32.4421 31.3337 32.425C31.1838 32.4015 31.0318 32.3844 30.8755 32.3738C30.8692 32.3738 30.865 32.3738 30.8565 32.3738C30.7362 32.3652 30.6179 32.361 30.4934 32.3631H30.4617C30.3498 32.3631 30.2379 32.3695 30.1027 32.378H30.0626C29.9317 32.3909 29.7987 32.4079 29.6657 32.4293C29.0048 32.5339 28.3608 32.7518 27.7569 33.0764C26.8806 33.5462 26.1353 34.2147 25.6011 35.007C25.0458 35.8271 24.7544 36.7347 24.7544 37.6274V48.9034C24.7544 49.5099 24.8874 50.0801 25.1513 50.5948C25.5314 51.3401 26.1606 51.9253 26.9693 52.2862C27.5479 52.5468 28.1961 52.677 28.8739 52.677C29.1568 52.677 29.444 52.6535 29.7353 52.6087C30.3962 52.504 31.0402 52.2862 31.6441 51.9616C32.5204 51.4918 33.2657 50.8233 33.7999 50.031C34.3552 49.2109 34.6466 48.3033 34.6466 47.4106C34.6466 46.9087 34.3996 46.4752 33.9688 46.2211L33.9667 46.2232Z" fill="#19D3C5"/>
<path d="M24.1252 42.9003C23.8022 42.928 23.4897 42.8255 23.2659 42.6184C23.0843 42.4496 22.9851 42.2318 22.9851 42.0012V31.0989C22.9851 30.4924 22.852 29.9221 22.5881 29.4075C22.208 28.6621 21.3487 28.062 21.3085 28.0257C21.3043 28.0214 21.336 28.0599 21.3466 28.0663C21.6675 28.3183 21.904 28.6685 22.0032 29.0807C22.037 29.2195 22.056 29.3647 22.056 29.5142C22.056 29.888 21.9441 30.2361 21.7541 30.5265C21.4289 31.0241 20.8715 31.353 20.238 31.353C20.1346 31.353 20.0332 31.3423 19.9319 31.3252C19.6447 31.2654 19.404 31.1715 19.1865 31.0177C19.3195 31.18 19.3871 31.3744 19.3871 31.5965V42.0012L19.385 42.6995C19.5328 45.5591 22.0138 46.2169 23.0716 46.3664C23.3271 46.4027 23.5594 46.3984 23.8128 46.3792C23.8951 46.3728 24.7481 46.3044 24.7481 46.2553V42.8533L24.121 42.9003H24.1252Z" fill="#0071CE"/>
<path d="M28.3499 42.2637L28.3313 42.266L28.3499 42.2637Z" fill="#433993"/>
<path d="M24.7523 42.8382V46.2551L28.3481 45.7981V42.2637L24.7523 42.8382Z" fill="#433993"/>
<path d="M45.886 29.4372C45.5059 28.6918 44.8767 28.1067 44.068 27.7458C43.7914 27.6219 43.4979 27.5279 43.1897 27.4639C43.4916 27.5407 44.5537 27.8995 44.5621 29.1147C44.5621 29.1745 44.5579 29.2322 44.5516 29.2898C44.4544 30.1569 43.6457 30.836 42.6681 30.836C42.4612 30.836 42.1424 30.7826 42.1424 30.7826C42.1424 30.7826 42.3219 30.8787 42.4021 30.9535C42.59 31.1328 42.685 31.3592 42.685 31.624V36.7986C42.685 36.8093 42.666 36.8349 42.628 36.8392L39.9845 37.2236V37.2279C38.9308 37.3795 38.3143 38.2701 38.3101 39.2354C38.308 39.9059 38.9329 40.9246 39.9845 40.7879H39.9971L42.3007 40.4078L42.8962 40.3138C43.3396 40.254 44.0068 40.1665 44.6149 40.0405C44.6487 40.0341 44.6846 40.0234 44.7331 40.0106C44.9696 39.9465 45.1998 39.8397 45.4067 39.6945C45.601 39.56 45.8037 39.3443 45.9451 39.1521C46.0127 39.0602 46.0718 38.962 46.1204 38.8574C46.2196 38.6459 46.2787 38.4131 46.2787 38.1761V31.1286C46.2787 30.5221 46.1457 29.9519 45.8818 29.4372H45.886Z" fill="#19D3C5"/>
<path d="M43.1896 27.464C43.139 27.4512 43.1073 27.4448 43.1073 27.4448C43.1094 27.4448 43.1115 27.4448 43.1115 27.4448C43.1369 27.4491 43.1622 27.4555 43.1896 27.4619V27.464Z" fill="#0071CE"/>
<path d="M43.1896 27.464C43.1643 27.4576 43.139 27.4511 43.1073 27.4447C43.0862 27.4383 42.9764 27.4234 42.9764 27.4234C42.7885 27.3956 42.6005 27.3721 42.4105 27.3636C42.3788 27.3636 42.3472 27.3614 42.3155 27.3593C42.2543 27.3593 42.193 27.3572 42.1318 27.3572H42.1001C41.9882 27.3572 41.8763 27.3636 41.7412 27.3721H41.7011C41.5701 27.3849 41.4371 27.402 41.3041 27.4234C40.6432 27.528 39.9992 27.7459 39.3953 28.0705C38.5191 28.5403 37.7737 29.2088 37.2395 30.0011C36.6842 30.8211 36.3928 31.7288 36.3928 32.6215V34.3C36.4604 33.4522 37.2374 32.7816 38.1833 32.7816C39.1293 32.7816 39.9422 33.4842 39.9781 34.3577H39.9887V32.1239C39.9887 31.9103 40.0478 31.7053 40.1702 31.4939C40.2505 31.355 40.3603 31.2226 40.4891 31.1094C40.5461 31.0582 40.6094 31.0112 40.6749 30.9664C40.734 30.9258 40.7995 30.8873 40.8734 30.851L40.8902 30.8425C41.0465 30.7656 41.2091 30.7144 41.3738 30.6866C41.6103 30.6503 41.8256 30.6652 42.0304 30.7336C42.0304 30.7336 42.098 30.7613 42.1001 30.7613L42.1466 30.7806C42.1466 30.7806 42.4654 30.834 42.6723 30.834C43.652 30.834 44.4586 30.1548 44.5558 29.2878C44.5621 29.2301 44.5663 29.1703 44.5663 29.1127C44.5579 27.8975 43.4958 27.5387 43.1939 27.4618L43.1896 27.464Z" fill="#0071CE"/>
<path d="M42.6681 30.836C43.6478 30.836 44.4544 30.1569 44.5515 29.2898C44.4544 30.1569 43.6457 30.836 42.6681 30.836Z" fill="#19D3C5"/>
</svg>
