<svg width="27" height="26" viewBox="0 0 27 26" fill="none" xmlns="http://www.w3.org/2000/svg">
<path d="M19.3333 24.3333C5.8273 22.6115 2.18637 12.1599 2.00708 5.6981C1.97832 4.66175 2.4936 3.70555 3.29795 3.05144L3.51842 2.87215C4.86551 1.77668 6.7909 1.75753 8.1595 2.826V2.826C8.69215 3.24184 9.10161 3.79479 9.344 4.42558L10.1194 6.44337C10.572 7.62135 10.2801 8.95571 9.37695 9.8371V9.8371C9.11372 10.094 8.92039 10.4211 8.88975 10.7876C8.72861 12.7152 9.75518 15.3718 12.7084 16.5833" stroke="#E31D93" stroke-width="2.5" stroke-linecap="round"/>
<path d="M24.6667 24.3333L25.7027 19.6711C25.8819 18.8648 25.547 18.0313 24.8597 17.5731L22.8139 16.2092C22.3004 15.8669 21.6575 15.7808 21.072 15.9759L18 17" stroke="#19D3C5" stroke-width="2.5" stroke-linecap="round"/>
</svg>
