<svg width="28" height="28" viewBox="0 0 28 28" fill="none" xmlns="http://www.w3.org/2000/svg">
<path d="M26 9.33333C26 5.33333 24 2 20 2H8C4.4 2 2 4.91563 2 8.51562V15.7157C2 19.3157 4.4 22.1107 8 22.1107H12.8L18.14 25.6626C18.932 26.1906 20 25.6267 20 24.6667V22.1107C23.6 22.1107 26 19.3157 26 15.7157V14.6667" stroke="#E31D93" stroke-width="2.5" stroke-miterlimit="10" stroke-linecap="round" stroke-linejoin="round"/>
<path d="M13.9998 13.3334V13.0534C13.9998 12.1468 14.5598 11.6667 15.1198 11.2801C15.6665 10.9067 16.2131 10.4268 16.2131 9.54675C16.2131 8.32009 15.2265 7.33337 13.9998 7.33337C12.7731 7.33337 11.7865 8.32009 11.7865 9.54675" stroke="#19D3C5" stroke-width="2.5" stroke-linecap="round" stroke-linejoin="round"/>
<path d="M13.988 16.6667H14.012" stroke="#19D3C5" stroke-width="2.5" stroke-linecap="round" stroke-linejoin="round"/>
</svg>
