<svg width="24" height="24" viewBox="0 0 24 24" fill="none" xmlns="http://www.w3.org/2000/svg">
<path fill-rule="evenodd" clip-rule="evenodd" d="M18 24H6C4.4087 24 2.88258 23.3679 1.75736 22.2426C0.632141 21.1174 0 19.5913 0 18V6C0 4.4087 0.632141 2.88258 1.75736 1.75736C2.88258 0.632141 4.4087 0 6 0L18 0C19.5913 0 21.1174 0.632141 22.2426 1.75736C23.3679 2.88258 24 4.4087 24 6V18C24 19.5913 23.3679 21.1174 22.2426 22.2426C21.1174 23.3679 19.5913 24 18 24Z" fill="black"/>
<path fill-rule="evenodd" clip-rule="evenodd" d="M12.75 5.25C12.75 5.05109 12.829 4.86032 12.9697 4.71967C13.1103 4.57902 13.3011 4.5 13.5 4.5H15.0859C15.2593 4.50004 15.4274 4.56018 15.5615 4.67019C15.6955 4.7802 15.7873 4.93329 15.8213 5.10338C15.957 5.77991 16.323 6.38848 16.857 6.82546C17.391 7.26244 18.06 7.50082 18.75 7.5C18.9489 7.5 19.1397 7.57902 19.2803 7.71967C19.421 7.86032 19.5 8.05109 19.5 8.25V9.75C19.5 9.94891 19.421 10.1397 19.2803 10.2803C19.1397 10.421 18.9489 10.5 18.75 10.5C17.6966 10.5015 16.6616 10.2243 15.75 9.69638V15.75C15.75 16.7884 15.4421 17.8034 14.8652 18.6667C14.2883 19.5301 13.4684 20.203 12.5091 20.6004C11.5498 20.9977 10.4942 21.1017 9.47578 20.8991C8.45738 20.6966 7.52192 20.1965 6.78769 19.4623C6.05347 18.7281 5.55345 17.7926 5.35088 16.7742C5.14831 15.7558 5.25227 14.7002 5.64963 13.7409C6.04699 12.7816 6.7199 11.9617 7.58326 11.3848C8.44662 10.8079 9.46165 10.5 10.5 10.5C10.6989 10.5 10.8897 10.579 11.0303 10.7197C11.171 10.8603 11.25 11.0511 11.25 11.25V12.75C11.25 12.9489 11.171 13.1397 11.0303 13.2803C10.8897 13.421 10.6989 13.5 10.5 13.5C10.055 13.5 9.61998 13.632 9.24997 13.8792C8.87996 14.1264 8.59157 14.4778 8.42127 14.889C8.25098 15.3001 8.20642 15.7525 8.29324 16.189C8.38005 16.6254 8.59434 17.0263 8.90901 17.341C9.22368 17.6557 9.62459 17.87 10.061 17.9568C10.4975 18.0436 10.9499 17.999 11.361 17.8287C11.7722 17.6584 12.1236 17.37 12.3708 17C12.618 16.63 12.75 16.195 12.75 15.75V5.25Z" fill="#FE2C55"/>
<path fill-rule="evenodd" clip-rule="evenodd" d="M12 4.5C12 4.30109 12.079 4.11032 12.2197 3.96967C12.3603 3.82902 12.5511 3.75 12.75 3.75H14.3359C14.5093 3.75004 14.6774 3.81018 14.8115 3.92019C14.9455 4.0302 15.0373 4.18329 15.0713 4.35338C15.207 5.02991 15.573 5.63848 16.107 6.07546C16.641 6.51244 17.31 6.75082 18 6.75C18.1989 6.75 18.3897 6.82902 18.5303 6.96967C18.671 7.11032 18.75 7.30109 18.75 7.5V9C18.75 9.19891 18.671 9.38968 18.5303 9.53033C18.3897 9.67098 18.1989 9.75 18 9.75C16.9466 9.75154 15.9116 9.47428 15 8.94638V15C15 16.0384 14.6921 17.0534 14.1152 17.9167C13.5383 18.7801 12.7184 19.453 11.7591 19.8504C10.7998 20.2477 9.74418 20.3517 8.72578 20.1491C7.70738 19.9466 6.77192 19.4465 6.03769 18.7123C5.30347 17.9781 4.80345 17.0426 4.60088 16.0242C4.39831 15.0058 4.50227 13.9502 4.89963 12.9909C5.29699 12.0316 5.9699 11.2117 6.83326 10.6348C7.69662 10.0579 8.71165 9.75 9.75 9.75C9.94892 9.75 10.1397 9.82902 10.2803 9.96967C10.421 10.1103 10.5 10.3011 10.5 10.5V12C10.5 12.1989 10.421 12.3897 10.2803 12.5303C10.1397 12.671 9.94892 12.75 9.75 12.75C9.30499 12.75 8.86998 12.882 8.49997 13.1292C8.12996 13.3764 7.84157 13.7278 7.67127 14.139C7.50098 14.5501 7.45642 15.0025 7.54324 15.439C7.63005 15.8754 7.84434 16.2763 8.15901 16.591C8.47368 16.9057 8.87459 17.12 9.31105 17.2068C9.74751 17.2936 10.1999 17.249 10.611 17.0787C11.0222 16.9084 11.3736 16.62 11.6208 16.25C11.868 15.88 12 15.445 12 15V4.5Z" fill="#25F4EE"/>
<path fill-rule="evenodd" clip-rule="evenodd" d="M8.5786 16.9215C8.83397 17.3407 9.21941 17.6648 9.67615 17.8446C10.1329 18.0243 10.6359 18.0498 11.1084 17.9171C11.581 17.7844 11.9972 17.5008 12.2936 17.1095C12.59 16.7183 12.7503 16.2408 12.7501 15.75V5.25C12.7501 5.05109 12.8291 4.86032 12.9698 4.71967C13.1104 4.57902 13.3012 4.5 13.5001 4.5H15.086L15.1044 4.50038C15.2807 5.19743 15.7033 5.8071 16.2942 6.21675C16.5693 6.61326 16.9365 6.93715 17.3642 7.16065C17.7919 7.38415 18.2675 7.50059 18.7501 7.5V9C18.7501 9.19891 18.6711 9.38968 18.5304 9.53033C18.3898 9.67098 18.199 9.75 18.0001 9.75C16.9467 9.75154 15.9117 9.47428 15.0001 8.94637V15C15.0001 15.9932 14.7184 16.966 14.1877 17.8054C13.657 18.6449 12.8991 19.3167 12.0019 19.7426C11.1048 20.1686 10.1052 20.3314 9.11919 20.212C8.13323 20.0927 7.20134 19.6961 6.43172 19.0684C5.80397 18.2988 5.4074 17.3669 5.28805 16.3809C5.1687 15.3949 5.33147 14.3953 5.75745 13.4982C6.18344 12.601 6.85517 11.8431 7.69465 11.3124C8.53414 10.7817 9.50694 10.5 10.5001 10.5V12C10.5001 12.1989 10.4211 12.3897 10.2804 12.5303C10.1398 12.671 9.94901 12.75 9.7501 12.75C9.25926 12.7498 8.78182 12.9101 8.39057 13.2065C7.99932 13.5029 7.71572 13.9191 7.58301 14.3917C7.4503 14.8642 7.47576 15.3672 7.65551 15.8239C7.83525 16.2807 8.15942 16.6661 8.5786 16.9215Z" fill="white"/>
</svg>
